<svg width="41" height="41" viewBox="0 0 41 41" fill="none" xmlns="http://www.w3.org/2000/svg">
<path d="M11.2705 35.5H28.7705C29.6038 35.5 30.0205 35.9167 30.0205 36.75C30.0205 37.5833 29.6038 38 28.7705 38H11.2705C10.4372 38 10.0205 37.5833 10.0205 36.75C10.0205 35.9167 10.4372 35.5 11.2705 35.5Z" fill="white"/>
<path d="M31.2705 16.75C31.2705 13.7663 30.0852 10.9048 27.9755 8.79505C25.8657 6.68526 23.0042 5.5 20.0205 5.5C17.0368 5.5 14.1753 6.68526 12.0656 8.79505C9.95577 10.9048 8.77051 13.7663 8.77051 16.75C8.77051 21.365 12.463 27.38 20.0205 34.585C27.578 27.38 31.2705 21.365 31.2705 16.75ZM20.0205 38C10.853 29.6675 6.27051 22.5825 6.27051 16.75C6.27051 13.1033 7.71916 9.60591 10.2978 7.02728C12.8764 4.44866 16.3738 3 20.0205 3C23.6672 3 27.1646 4.44866 29.7432 7.02728C32.3219 9.60591 33.7705 13.1033 33.7705 16.75C33.7705 22.5825 29.188 29.6675 20.0205 38Z" fill="white"/>
<path d="M20.0205 20.5C21.0151 20.5 21.9689 20.1049 22.6722 19.4017C23.3754 18.6984 23.7705 17.7446 23.7705 16.75C23.7705 15.7554 23.3754 14.8016 22.6722 14.0983C21.9689 13.3951 21.0151 13 20.0205 13C19.0259 13 18.0721 13.3951 17.3689 14.0983C16.6656 14.8016 16.2705 15.7554 16.2705 16.75C16.2705 17.7446 16.6656 18.6984 17.3689 19.4017C18.0721 20.1049 19.0259 20.5 20.0205 20.5ZM20.0205 23C18.3629 23 16.7732 22.3415 15.6011 21.1694C14.429 19.9973 13.7705 18.4076 13.7705 16.75C13.7705 15.0924 14.429 13.5027 15.6011 12.3306C16.7732 11.1585 18.3629 10.5 20.0205 10.5C21.6781 10.5 23.2678 11.1585 24.4399 12.3306C25.612 13.5027 26.2705 15.0924 26.2705 16.75C26.2705 18.4076 25.612 19.9973 24.4399 21.1694C23.2678 22.3415 21.6781 23 20.0205 23Z" fill="white"/>
</svg>
